<svg width="17" height="30" viewBox="0 0 17 30" fill="none" xmlns="http://www.w3.org/2000/svg">
<path d="M8.9271 12.8694C5.22919 11.9082 4.04 10.9145 4.04 9.36694C4.04 7.59129 5.68532 6.35323 8.43839 6.35323C11.3381 6.35323 12.4132 7.7379 12.511 9.77419H16.1111C15.9971 6.97226 14.2866 4.39839 10.8819 3.56758V0H5.99484V3.51871C2.83452 4.2029 0.293226 6.25548 0.293226 9.39952C0.293226 13.1626 3.40468 15.036 7.94968 16.1274C12.0223 17.1048 12.8368 18.5384 12.8368 20.0534C12.8368 21.1774 12.0385 22.9694 8.43839 22.9694C5.08258 22.9694 3.76306 21.4706 3.58387 19.5484H0C0.195484 23.116 2.8671 25.1197 5.99484 25.7876V29.3226H10.8819V25.8202C14.0585 25.2174 16.5835 23.3766 16.5835 20.0371C16.5835 15.4106 12.625 13.8305 8.9271 12.8694Z" fill="#6D6D6D"/>
</svg>
