<svg width="164" height="45" viewBox="0 0 164 45" fill="none" xmlns="http://www.w3.org/2000/svg">
<path d="M79.7432 9.54724V36H75.4076V18.9136C75.4076 18.2307 75.4441 17.4928 75.5173 16.7001L67.5229 31.7193C67.1449 32.4388 66.5656 32.7986 65.785 32.7986H65.0899C64.3093 32.7986 63.73 32.4388 63.352 31.7193L55.2661 16.6452C55.3027 17.0477 55.3332 17.444 55.3576 17.8343C55.382 18.2246 55.3942 18.5844 55.3942 18.9136V36H51.0586V9.54724H54.7722C54.9917 9.54724 55.1808 9.55334 55.3393 9.56554C55.4979 9.57773 55.6381 9.60822 55.7601 9.65701C55.8942 9.70579 56.0101 9.78506 56.1076 9.89482C56.2174 10.0046 56.3211 10.1509 56.4186 10.3339L64.3398 25.0238C64.5472 25.414 64.7362 25.8165 64.9069 26.2311C65.0899 26.6458 65.2667 27.0727 65.4375 27.5117C65.6082 27.0605 65.785 26.6275 65.968 26.2128C66.1509 25.786 66.346 25.3774 66.5534 24.9872L74.3648 10.3339C74.4624 10.1509 74.566 10.0046 74.6758 9.89482C74.7856 9.78506 74.9014 9.70579 75.0234 9.65701C75.1575 9.60822 75.3039 9.57773 75.4624 9.56554C75.621 9.55334 75.81 9.54724 76.0295 9.54724H79.7432ZM94.3825 27.9873C93.0775 28.0483 91.9799 28.1642 91.0896 28.3349C90.1993 28.4935 89.4858 28.7008 88.9492 28.9569C88.4126 29.213 88.0284 29.5118 87.7967 29.8533C87.565 30.1948 87.4491 30.5668 87.4491 30.9692C87.4491 31.7619 87.6808 32.3291 88.1443 32.6705C88.6199 33.012 89.2358 33.1828 89.992 33.1828C90.9188 33.1828 91.7177 33.0181 92.3884 32.6888C93.0714 32.3473 93.7361 31.8351 94.3825 31.1522V27.9873ZM84.0282 19.8466C86.1869 17.8709 88.7846 16.883 91.8213 16.883C92.919 16.883 93.9007 17.066 94.7666 17.4318C95.6325 17.7855 96.3643 18.2856 96.9619 18.9319C97.5595 19.5661 98.0107 20.3284 98.3156 21.2187C98.6327 22.1089 98.7912 23.0846 98.7912 24.1457V36H96.7423C96.3155 36 95.9862 35.939 95.7545 35.8171C95.5228 35.6829 95.3398 35.4207 95.2057 35.0304L94.8032 33.6767C94.3276 34.1035 93.8641 34.4816 93.4129 34.8109C92.9616 35.128 92.4921 35.3963 92.0043 35.6158C91.5164 35.8354 90.992 36 90.431 36.1098C89.8822 36.2317 89.2724 36.2927 88.6016 36.2927C87.8089 36.2927 87.0771 36.189 86.4064 35.9817C85.7356 35.7622 85.1563 35.439 84.6685 35.0121C84.1806 34.5853 83.8026 34.0548 83.5343 33.4206C83.266 32.7864 83.1318 32.0486 83.1318 31.207C83.1318 30.7314 83.2111 30.2619 83.3696 29.7984C83.5282 29.3228 83.7843 28.8715 84.138 28.4447C84.5038 28.0178 84.9734 27.6154 85.5466 27.2373C86.1198 26.8592 86.821 26.5299 87.6504 26.2494C88.4919 25.9689 89.4675 25.7433 90.5774 25.5726C91.6872 25.3896 92.9555 25.2799 94.3825 25.2433V24.1457C94.3825 22.8895 94.1141 21.9626 93.5775 21.365C93.0409 20.7552 92.2665 20.4503 91.2542 20.4503C90.5225 20.4503 89.9127 20.5357 89.4248 20.7064C88.9492 20.8772 88.5285 21.0723 88.1626 21.2918C87.7967 21.4992 87.4613 21.6882 87.1564 21.8589C86.8637 22.0297 86.5344 22.115 86.1686 22.115C85.8515 22.115 85.5832 22.0358 85.3636 21.8772C85.1441 21.7065 84.9673 21.5114 84.8331 21.2918L84.0282 19.8466ZM114.499 20.8894C114.377 21.0845 114.249 21.2248 114.115 21.3101C113.98 21.3833 113.81 21.4199 113.602 21.4199C113.383 21.4199 113.145 21.3589 112.889 21.2369C112.645 21.115 112.358 20.9808 112.029 20.8345C111.7 20.6759 111.322 20.5357 110.895 20.4137C110.48 20.2918 109.986 20.2308 109.413 20.2308C108.523 20.2308 107.821 20.4198 107.309 20.7979C106.809 21.176 106.559 21.6699 106.559 22.2797C106.559 22.6822 106.687 23.0236 106.943 23.3041C107.212 23.5724 107.559 23.8103 107.986 24.0176C108.425 24.2249 108.919 24.414 109.468 24.5847C110.017 24.7432 110.572 24.9201 111.133 25.1152C111.706 25.3104 112.267 25.536 112.816 25.7921C113.364 26.036 113.852 26.3531 114.279 26.7434C114.718 27.1214 115.066 27.5788 115.322 28.1154C115.59 28.652 115.724 29.2984 115.724 30.0545C115.724 30.957 115.56 31.7924 115.23 32.5608C114.913 33.3169 114.438 33.9755 113.804 34.5365C113.169 35.0853 112.383 35.5183 111.444 35.8354C110.517 36.1403 109.444 36.2927 108.224 36.2927C107.578 36.2927 106.943 36.2317 106.321 36.1098C105.712 36 105.12 35.8415 104.547 35.6341C103.986 35.4268 103.461 35.1829 102.974 34.9024C102.498 34.6219 102.077 34.317 101.711 33.9877L102.754 32.2681C102.888 32.0607 103.047 31.9022 103.23 31.7924C103.413 31.6827 103.644 31.6278 103.925 31.6278C104.205 31.6278 104.468 31.7071 104.712 31.8656C104.968 32.0242 105.26 32.1949 105.59 32.3778C105.919 32.5608 106.303 32.7315 106.742 32.8901C107.193 33.0486 107.761 33.1279 108.443 33.1279C108.98 33.1279 109.437 33.0669 109.816 32.9449C110.206 32.8108 110.523 32.64 110.767 32.4327C111.023 32.2254 111.206 31.9876 111.316 31.7193C111.438 31.4388 111.499 31.1522 111.499 30.8595C111.499 30.4204 111.364 30.0606 111.096 29.7801C110.84 29.4996 110.492 29.2557 110.053 29.0484C109.626 28.841 109.133 28.6581 108.572 28.4996C108.023 28.3288 107.456 28.1459 106.87 27.9508C106.297 27.7556 105.73 27.53 105.169 27.2739C104.62 27.0056 104.126 26.6702 103.687 26.2677C103.26 25.8653 102.913 25.3713 102.644 24.7859C102.388 24.2005 102.26 23.4932 102.26 22.6639C102.26 21.8955 102.413 21.1638 102.718 20.4686C103.022 19.7734 103.468 19.1698 104.053 18.6575C104.651 18.1331 105.388 17.7184 106.267 17.4136C107.157 17.0965 108.181 16.9379 109.34 16.9379C110.633 16.9379 111.81 17.1513 112.871 17.5782C113.932 18.0051 114.816 18.5661 115.523 19.2612L114.499 20.8894ZM130.577 20.8894C130.455 21.0845 130.327 21.2248 130.193 21.3101C130.059 21.3833 129.888 21.4199 129.681 21.4199C129.461 21.4199 129.223 21.3589 128.967 21.2369C128.723 21.115 128.437 20.9808 128.108 20.8345C127.778 20.6759 127.4 20.5357 126.973 20.4137C126.559 20.2918 126.065 20.2308 125.492 20.2308C124.601 20.2308 123.9 20.4198 123.388 20.7979C122.888 21.176 122.638 21.6699 122.638 22.2797C122.638 22.6822 122.766 23.0236 123.022 23.3041C123.29 23.5724 123.638 23.8103 124.065 24.0176C124.504 24.2249 124.998 24.414 125.546 24.5847C126.095 24.7432 126.65 24.9201 127.211 25.1152C127.784 25.3104 128.345 25.536 128.894 25.7921C129.443 26.036 129.931 26.3531 130.358 26.7434C130.797 27.1214 131.144 27.5788 131.4 28.1154C131.669 28.652 131.803 29.2984 131.803 30.0545C131.803 30.957 131.638 31.7924 131.309 32.5608C130.992 33.3169 130.516 33.9755 129.882 34.5365C129.248 35.0853 128.461 35.5183 127.522 35.8354C126.595 36.1403 125.522 36.2927 124.302 36.2927C123.656 36.2927 123.022 36.2317 122.4 36.1098C121.79 36 121.199 35.8415 120.625 35.6341C120.064 35.4268 119.54 35.1829 119.052 34.9024C118.577 34.6219 118.156 34.317 117.79 33.9877L118.833 32.2681C118.967 32.0607 119.125 31.9022 119.308 31.7924C119.491 31.6827 119.723 31.6278 120.003 31.6278C120.284 31.6278 120.546 31.7071 120.79 31.8656C121.046 32.0242 121.339 32.1949 121.668 32.3778C121.997 32.5608 122.382 32.7315 122.821 32.8901C123.272 33.0486 123.839 33.1279 124.522 33.1279C125.059 33.1279 125.516 33.0669 125.894 32.9449C126.284 32.8108 126.601 32.64 126.845 32.4327C127.101 32.2254 127.284 31.9876 127.394 31.7193C127.516 31.4388 127.577 31.1522 127.577 30.8595C127.577 30.4204 127.443 30.0606 127.175 29.7801C126.918 29.4996 126.571 29.2557 126.132 29.0484C125.705 28.841 125.211 28.6581 124.65 28.4996C124.101 28.3288 123.534 28.1459 122.949 27.9508C122.376 27.7556 121.808 27.53 121.247 27.2739C120.699 27.0056 120.205 26.6702 119.766 26.2677C119.339 25.8653 118.991 25.3713 118.723 24.7859C118.467 24.2005 118.339 23.4932 118.339 22.6639C118.339 21.8955 118.491 21.1638 118.796 20.4686C119.101 19.7734 119.546 19.1698 120.131 18.6575C120.729 18.1331 121.467 17.7184 122.345 17.4136C123.235 17.0965 124.26 16.9379 125.418 16.9379C126.711 16.9379 127.888 17.1513 128.949 17.5782C130.01 18.0051 130.894 18.5661 131.602 19.2612L130.577 20.8894ZM139.887 17.2306V36H135.35V17.2306H139.887ZM140.509 11.7608C140.509 12.1511 140.43 12.5169 140.271 12.8584C140.113 13.1999 139.899 13.4987 139.631 13.7548C139.375 14.0109 139.07 14.2182 138.716 14.3768C138.363 14.5231 137.984 14.5963 137.582 14.5963C137.192 14.5963 136.82 14.5231 136.466 14.3768C136.125 14.2182 135.826 14.0109 135.57 13.7548C135.314 13.4987 135.106 13.1999 134.948 12.8584C134.801 12.5169 134.728 12.1511 134.728 11.7608C134.728 11.3583 134.801 10.9803 134.948 10.6266C135.106 10.2729 135.314 9.968 135.57 9.71189C135.826 9.45577 136.125 9.25454 136.466 9.10819C136.82 8.94965 137.192 8.87038 137.582 8.87038C137.984 8.87038 138.363 8.94965 138.716 9.10819C139.07 9.25454 139.375 9.45577 139.631 9.71189C139.899 9.968 140.113 10.2729 140.271 10.6266C140.43 10.9803 140.509 11.3583 140.509 11.7608ZM150.75 36.2927C149.116 36.2927 147.86 35.8354 146.982 34.9207C146.116 33.9938 145.683 32.7193 145.683 31.0973V20.615H143.762C143.518 20.615 143.311 20.5357 143.14 20.3771C142.969 20.2186 142.884 19.9808 142.884 19.6637V17.8709L145.902 17.377L146.853 12.2547C146.914 12.0108 147.03 11.8218 147.201 11.6876C147.372 11.5535 147.591 11.4864 147.86 11.4864H150.201V17.3953H155.214V20.615H150.201V30.7863C150.201 31.3717 150.341 31.829 150.622 32.1583C150.915 32.4876 151.311 32.6522 151.811 32.6522C152.092 32.6522 152.323 32.6218 152.506 32.5608C152.701 32.4876 152.866 32.4144 153 32.3413C153.147 32.2681 153.275 32.201 153.384 32.14C153.494 32.0668 153.604 32.0303 153.714 32.0303C153.848 32.0303 153.958 32.0668 154.043 32.14C154.128 32.201 154.22 32.2986 154.317 32.4327L155.671 34.628C155.012 35.1768 154.256 35.5914 153.403 35.8719C152.549 36.1524 151.665 36.2927 150.75 36.2927Z" fill="#333333"/>
<circle cx="18.7925" cy="21.7925" r="18.7925" fill="url(#paint0_linear)"/>
<defs>
<linearGradient id="paint0_linear" x1="8.5" y1="36.8679" x2="32.5" y2="10.3679" gradientUnits="userSpaceOnUse">
<stop stop-color="#9DA5FB"/>
<stop offset="0.577975" stop-color="#FE97C9"/>
<stop offset="0.979167" stop-color="#FFF4CF"/>
</linearGradient>
</defs>
</svg>
