<svg width="41" height="41" viewBox="0 0 41 41" fill="none" xmlns="http://www.w3.org/2000/svg">
<g id="icon/action/redeem_24px">
<path id="icon/action/redeem_24px_2" fill-rule="evenodd" clip-rule="evenodd" d="M34.1667 11.1041H30.4426C30.6305 10.5745 30.7501 9.99367 30.7501 9.39575C30.7501 6.55992 28.4609 4.27075 25.6251 4.27075C23.8313 4.27075 22.2767 5.19325 21.3542 6.577L20.5001 7.72159L19.6459 6.55992C18.7234 5.19325 17.1688 4.27075 15.3751 4.27075C12.5392 4.27075 10.2501 6.55992 10.2501 9.39575C10.2501 9.99367 10.3697 10.5745 10.5576 11.1041H6.83341C4.93716 11.1041 3.43383 12.6245 3.43383 14.5208L3.41675 33.3124C3.41675 35.2087 4.93716 36.7291 6.83341 36.7291H34.1667C36.063 36.7291 37.5834 35.2087 37.5834 33.3124V14.5208C37.5834 12.6245 36.063 11.1041 34.1667 11.1041ZM25.625 7.6875C26.5646 7.6875 27.3333 8.45625 27.3333 9.39583C27.3333 10.3354 26.5646 11.1042 25.625 11.1042C24.6854 11.1042 23.9167 10.3354 23.9167 9.39583C23.9167 8.45625 24.6854 7.6875 25.625 7.6875ZM17.0833 9.39583C17.0833 8.45625 16.3146 7.6875 15.375 7.6875C14.4354 7.6875 13.6667 8.45625 13.6667 9.39583C13.6667 10.3354 14.4354 11.1042 15.375 11.1042C16.3146 11.1042 17.0833 10.3354 17.0833 9.39583ZM34.1667 29.8958V33.3125H6.83333V29.8958H34.1667ZM6.83333 14.5207V24.7707H34.1667V14.5207H25.4883L29.0417 19.3552L26.2742 21.354L22.2083 15.819L20.5 13.4957L18.7917 15.819L14.7258 21.354L11.9583 19.3552L15.5117 14.5207H6.83333Z" fill="#575757"/>
</g>
</svg>
