<svg width="23" height="23" viewBox="0 0 23 23" fill="none" xmlns="http://www.w3.org/2000/svg">
<path fill-rule="evenodd" clip-rule="evenodd" d="M11.3918 0C5.09724 0 0 5.10864 0 11.4032C0 17.6978 5.09724 22.8065 11.3918 22.8065C17.6978 22.8065 22.8065 17.6978 22.8065 11.4032C22.8065 5.10864 17.6978 0 11.3918 0ZM11.4031 20.5258C6.36284 20.5258 2.28049 16.4434 2.28049 11.4032C2.28049 6.36297 6.36284 2.28061 11.4031 2.28061C16.4433 2.28061 20.5257 6.36297 20.5257 11.4032C20.5257 16.4434 16.4433 20.5258 11.4031 20.5258ZM17.1047 8.55286C17.1047 9.49933 16.3407 10.2633 15.3942 10.2633C14.4477 10.2633 13.6837 9.49933 13.6837 8.55286C13.6837 7.6064 14.4477 6.84238 15.3942 6.84238C16.3407 6.84238 17.1047 7.6064 17.1047 8.55286ZM7.4121 10.2633C8.35856 10.2633 9.12258 9.49933 9.12258 8.55286C9.12258 7.6064 8.35856 6.84238 7.4121 6.84238C6.46563 6.84238 5.70161 7.6064 5.70161 8.55286C5.70161 9.49933 6.46563 10.2633 7.4121 10.2633ZM17.2304 13.6838C16.3182 16.0101 14.0603 17.675 11.4034 17.675C8.74643 17.675 6.48859 16.0101 5.57633 13.6838H17.2304Z" fill="#6D6D6D"/>
</svg>
