<svg width="21" height="21" viewBox="0 0 21 21" fill="none" xmlns="http://www.w3.org/2000/svg">
<path fill-rule="evenodd" clip-rule="evenodd" d="M10.3799 2.1814C7.12647 2.1814 4.49512 4.81274 4.49512 8.0662C4.49512 12.4798 10.3799 18.9951 10.3799 18.9951C10.3799 18.9951 16.2647 12.4798 16.2647 8.0662C16.2647 4.81274 13.6334 2.1814 10.3799 2.1814ZM6.17643 8.06618C6.17643 5.74588 8.05957 3.86275 10.3799 3.86275C12.7002 3.86275 14.5833 5.74588 14.5833 8.06618C14.5833 10.4874 12.1621 14.1107 10.3799 16.3722C8.63123 14.1275 6.17643 10.4621 6.17643 8.06618ZM8.27815 8.06618C8.27815 6.90543 9.21912 5.96446 10.3799 5.96446C11.1307 5.96446 11.8246 6.36505 12.2 7.01532C12.5754 7.66559 12.5754 8.46676 12.2 9.11703C11.8246 9.76731 11.1307 10.1679 10.3799 10.1679C9.21912 10.1679 8.27815 9.22692 8.27815 8.06618Z" fill="#6D6D6D"/>
</svg>
